<svg width="107" height="24" viewBox="0 0 107 24" fill="none" xmlns="http://www.w3.org/2000/svg">
<path d="M11.928 17.288C10.8827 17.288 9.98133 17.1013 9.224 16.728C8.46667 16.3547 7.84267 15.864 7.352 15.256C6.86133 14.648 6.49333 13.9973 6.248 13.304C6.01333 12.6107 5.896 11.944 5.896 11.304V10.952C5.896 10.2587 6.01867 9.56 6.264 8.856C6.50933 8.152 6.88267 7.512 7.384 6.936C7.88533 6.34933 8.50933 5.88 9.256 5.528C10.0133 5.176 10.904 5 11.928 5C12.952 5 13.8373 5.176 14.584 5.528C15.3413 5.88 15.9707 6.34933 16.472 6.936C16.9733 7.512 17.3467 8.152 17.592 8.856C17.8373 9.56 17.96 10.2587 17.96 10.952V11.304C17.96 11.944 17.8373 12.6107 17.592 13.304C17.3573 13.9973 16.9947 14.648 16.504 15.256C16.0133 15.864 15.3893 16.3547 14.632 16.728C13.8747 17.1013 12.9733 17.288 11.928 17.288ZM11.928 15.848C12.6107 15.848 13.224 15.72 13.768 15.464C14.3227 15.208 14.792 14.8613 15.176 14.424C15.56 13.976 15.8533 13.4747 16.056 12.92C16.2587 12.3547 16.36 11.7627 16.36 11.144C16.36 10.4933 16.2587 9.88533 16.056 9.32C15.8533 8.75467 15.56 8.25867 15.176 7.832C14.792 7.39467 14.3227 7.05333 13.768 6.808C13.224 6.56267 12.6107 6.44 11.928 6.44C11.2453 6.44 10.6267 6.56267 10.072 6.808C9.528 7.05333 9.064 7.39467 8.68 7.832C8.296 8.25867 8.00267 8.75467 7.8 9.32C7.59733 9.88533 7.496 10.4933 7.496 11.144C7.496 11.7627 7.59733 12.3547 7.8 12.92C8.00267 13.4747 8.296 13.976 8.68 14.424C9.064 14.8613 9.528 15.208 10.072 15.464C10.6267 15.72 11.2453 15.848 11.928 15.848Z" fill="black"/>
<path d="M24.8278 17.288C24.1238 17.288 23.4944 17.1333 22.9398 16.824C22.3958 16.5147 21.9637 16.0667 21.6437 15.48C21.3237 14.8827 21.1477 14.168 21.1157 13.336H21.5317V17H20.3158V5.32H21.8517V11L21.3078 12.168C21.3504 11.24 21.5371 10.4827 21.8678 9.896C22.1984 9.30933 22.6304 8.87733 23.1637 8.6C23.7077 8.312 24.3051 8.168 24.9557 8.168C25.5637 8.168 26.1184 8.28533 26.6198 8.52C27.1211 8.744 27.5531 9.05867 27.9158 9.464C28.2784 9.85867 28.5557 10.3227 28.7477 10.856C28.9397 11.3787 29.0358 11.944 29.0358 12.552V12.84C29.0358 13.448 28.9344 14.0187 28.7318 14.552C28.5398 15.0853 28.2571 15.56 27.8838 15.976C27.5104 16.3813 27.0624 16.7013 26.5398 16.936C26.0278 17.1707 25.4571 17.288 24.8278 17.288ZM24.6518 15.944C25.2278 15.944 25.7291 15.8053 26.1558 15.528C26.5824 15.2507 26.9131 14.872 27.1478 14.392C27.3824 13.9013 27.4998 13.336 27.4998 12.696C27.4998 12.056 27.3771 11.496 27.1318 11.016C26.8971 10.536 26.5664 10.168 26.1398 9.912C25.7131 9.64533 25.2171 9.512 24.6518 9.512C24.1398 9.512 23.6651 9.62933 23.2278 9.864C22.7904 10.088 22.4384 10.4187 22.1717 10.856C21.9157 11.2827 21.7878 11.8 21.7878 12.408V13.144C21.7878 13.7307 21.9211 14.232 22.1877 14.648C22.4544 15.064 22.8064 15.384 23.2437 15.608C23.6811 15.832 24.1504 15.944 24.6518 15.944Z" fill="black"/>
<path d="M29.843 20.264V18.888H30.739C31.1443 18.888 31.4537 18.776 31.667 18.552C31.891 18.328 32.003 18.0187 32.003 17.624V8.456H33.475V17.4C33.475 18.1147 33.3737 18.68 33.171 19.096C32.979 19.512 32.6643 19.8107 32.227 19.992C31.8003 20.1733 31.2297 20.264 30.515 20.264H29.843ZM30.659 9.672V8.456H33.475V9.672H30.659ZM32.371 6.952C32.0297 6.952 31.7737 6.86133 31.603 6.68C31.443 6.49867 31.363 6.26933 31.363 5.992C31.363 5.71467 31.443 5.48533 31.603 5.304C31.7737 5.12267 32.0297 5.032 32.371 5.032C32.7123 5.032 32.963 5.12267 33.123 5.304C33.2937 5.48533 33.379 5.71467 33.379 5.992C33.379 6.26933 33.2937 6.49867 33.123 6.68C32.963 6.86133 32.7123 6.952 32.371 6.952Z" fill="black"/>
<path d="M40.0571 17.288C39.3105 17.288 38.6651 17.16 38.1211 16.904C37.5771 16.648 37.1345 16.312 36.7931 15.896C36.4518 15.4693 36.1958 14.9947 36.0251 14.472C35.8651 13.9493 35.7851 13.416 35.7851 12.872V12.584C35.7851 12.0293 35.8651 11.4907 36.0251 10.968C36.1958 10.4453 36.4518 9.976 36.7931 9.56C37.1345 9.13333 37.5665 8.79733 38.0891 8.552C38.6225 8.296 39.2465 8.168 39.9611 8.168C40.8891 8.168 41.6518 8.37067 42.2491 8.776C42.8571 9.17067 43.3051 9.68267 43.5931 10.312C43.8918 10.9413 44.0411 11.6133 44.0411 12.328V13.016H36.4571V11.864H42.9211L42.5691 12.488C42.5691 11.88 42.4731 11.3573 42.2811 10.92C42.0891 10.472 41.8011 10.1253 41.4171 9.88C41.0331 9.63467 40.5478 9.512 39.9611 9.512C39.3531 9.512 38.8465 9.65067 38.4411 9.928C38.0465 10.2053 37.7478 10.584 37.5451 11.064C37.3531 11.544 37.2571 12.0987 37.2571 12.728C37.2571 13.336 37.3531 13.8853 37.5451 14.376C37.7478 14.856 38.0571 15.24 38.4731 15.528C38.8891 15.8053 39.4171 15.944 40.0571 15.944C40.7291 15.944 41.2731 15.7947 41.6891 15.496C42.1158 15.1973 42.3718 14.8507 42.4571 14.456H43.8971C43.7798 15.0427 43.5451 15.5493 43.1931 15.976C42.8411 16.4027 42.3985 16.728 41.8651 16.952C41.3318 17.176 40.7291 17.288 40.0571 17.288Z" fill="black"/>
<path d="M49.886 17.288C49.15 17.288 48.51 17.16 47.966 16.904C47.4327 16.648 46.99 16.3067 46.638 15.88C46.286 15.4427 46.0193 14.9627 45.838 14.44C45.6673 13.9173 45.582 13.3947 45.582 12.872V12.584C45.582 12.04 45.6673 11.5067 45.838 10.984C46.0193 10.4613 46.286 9.992 46.638 9.576C47.0007 9.14933 47.4487 8.808 47.982 8.552C48.5153 8.296 49.1393 8.168 49.854 8.168C50.5687 8.168 51.2087 8.30133 51.774 8.568C52.35 8.83467 52.8087 9.21333 53.15 9.704C53.502 10.184 53.6993 10.7547 53.742 11.416H52.27C52.1953 10.8827 51.95 10.44 51.534 10.088C51.118 9.72533 50.558 9.544 49.854 9.544C49.246 9.544 48.7393 9.68267 48.334 9.96C47.9287 10.2373 47.6247 10.616 47.422 11.096C47.2193 11.576 47.118 12.12 47.118 12.728C47.118 13.3147 47.2193 13.8533 47.422 14.344C47.6247 14.824 47.9287 15.208 48.334 15.496C48.75 15.7733 49.2673 15.912 49.886 15.912C50.366 15.912 50.782 15.8267 51.134 15.656C51.486 15.4853 51.7687 15.256 51.982 14.968C52.1953 14.68 52.3233 14.3547 52.366 13.992H53.838C53.806 14.664 53.6087 15.2453 53.246 15.736C52.894 16.2267 52.4247 16.6107 51.838 16.888C51.262 17.1547 50.6113 17.288 49.886 17.288Z" fill="black"/>
<path d="M59.2531 17.096C58.6131 17.096 58.0585 17.0053 57.5891 16.824C57.1305 16.6427 56.7731 16.3333 56.5171 15.896C56.2718 15.448 56.1491 14.8453 56.1491 14.088V5.864H57.6211V14.28C57.6211 14.7387 57.7438 15.096 57.9891 15.352C58.2451 15.5973 58.6025 15.72 59.0611 15.72H60.5651V17.096H59.2531ZM54.6771 9.608V8.456H60.5651V9.608H54.6771Z" fill="black"/>
<path d="M63.1536 17V8.456H64.6896V17H63.1536ZM61.8416 9.672V8.456H64.6896V9.672H61.8416ZM63.5856 7.08C63.2443 7.08 62.9883 6.98933 62.8176 6.808C62.6576 6.62667 62.5776 6.39733 62.5776 6.12C62.5776 5.84267 62.6576 5.61333 62.8176 5.432C62.9883 5.25067 63.2443 5.16 63.5856 5.16C63.927 5.16 64.1776 5.25067 64.3376 5.432C64.5083 5.61333 64.5936 5.84267 64.5936 6.12C64.5936 6.39733 64.5083 6.62667 64.3376 6.808C64.1776 6.98933 63.927 7.08 63.5856 7.08Z" fill="black"/>
<path d="M71.5955 17.288C70.8488 17.288 70.1928 17.16 69.6275 16.904C69.0622 16.648 68.5822 16.312 68.1875 15.896C67.8035 15.4693 67.5102 14.9947 67.3075 14.472C67.1155 13.9493 67.0195 13.416 67.0195 12.872V12.584C67.0195 12.04 67.1208 11.5067 67.3235 10.984C67.5262 10.4507 67.8248 9.976 68.2195 9.56C68.6142 9.13333 69.0942 8.79733 69.6595 8.552C70.2248 8.296 70.8702 8.168 71.5955 8.168C72.3208 8.168 72.9662 8.296 73.5315 8.552C74.0968 8.79733 74.5768 9.13333 74.9715 9.56C75.3662 9.976 75.6648 10.4507 75.8675 10.984C76.0702 11.5067 76.1715 12.04 76.1715 12.584V12.872C76.1715 13.416 76.0702 13.9493 75.8675 14.472C75.6755 14.9947 75.3822 15.4693 74.9875 15.896C74.6035 16.312 74.1288 16.648 73.5635 16.904C72.9982 17.16 72.3422 17.288 71.5955 17.288ZM71.5955 15.912C72.2355 15.912 72.7795 15.7733 73.2275 15.496C73.6862 15.208 74.0328 14.824 74.2675 14.344C74.5128 13.864 74.6355 13.3253 74.6355 12.728C74.6355 12.12 74.5128 11.576 74.2675 11.096C74.0222 10.616 73.6702 10.2373 73.2115 9.96C72.7635 9.68267 72.2248 9.544 71.5955 9.544C70.9768 9.544 70.4382 9.68267 69.9795 9.96C69.5208 10.2373 69.1688 10.616 68.9235 11.096C68.6782 11.576 68.5555 12.12 68.5555 12.728C68.5555 13.3253 68.6728 13.864 68.9075 14.344C69.1528 14.824 69.4995 15.208 69.9475 15.496C70.4062 15.7733 70.9555 15.912 71.5955 15.912Z" fill="black"/>
<path d="M78.472 17V8.456H79.688V12.12H79.496C79.496 11.2773 79.608 10.568 79.832 9.992C80.0667 9.40533 80.4187 8.96267 80.888 8.664C81.3573 8.35467 81.9493 8.2 82.664 8.2H82.728C83.8053 8.2 84.6 8.536 85.112 9.208C85.6347 9.88 85.896 10.8507 85.896 12.12V17H84.36V11.8C84.36 11.1387 84.1733 10.6107 83.8 10.216C83.4267 9.81067 82.9147 9.608 82.264 9.608C81.592 9.608 81.048 9.816 80.632 10.232C80.216 10.648 80.008 11.2027 80.008 11.896V17H78.472Z" fill="black"/>
<path d="M88.8024 17V5.32H90.3384V17H88.8024ZM87.6184 6.536V5.32H90.3384V6.536H87.6184Z" fill="black"/>
<path d="M92.7085 20.328V18.952H93.9405C94.3032 18.952 94.6072 18.904 94.8525 18.808C95.1085 18.7227 95.3165 18.5733 95.4765 18.36C95.6472 18.1467 95.7858 17.864 95.8925 17.512L98.5805 8.456H100.085L97.2365 17.912C97.0658 18.4773 96.8258 18.936 96.5165 19.288C96.2072 19.6507 95.8285 19.912 95.3805 20.072C94.9432 20.2427 94.4312 20.328 93.8445 20.328H92.7085ZM95.3165 16.808V15.528H97.1725V16.808H95.3165ZM95.1565 16.808L92.1005 8.456H93.6685L96.5965 16.808H95.1565Z" fill="black"/>
</svg>
